<mxfile host="app.diagrams.net" modified="2025-04-18T12:34:56.789Z" agent="Mozilla/5.0" version="21.0.0" etag="abc123" type="device">
  <diagram id="runner-app-system-design" name="Runner App System Design">
    <mxGraphModel dx="1188" dy="682" grid="1" gridSize="10" guides="1" tooltips="1" connect="1" arrows="1" fold="1" page="1" pageScale="1" pageWidth="900" pageHeight="700" math="0" shadow="0">
      <root>
        <mxCell id="0" />
        <mxCell id="1" parent="0" />
        
        <!-- Frontend Section -->
        <mxCell id="frontend-label" value="Frontend" style="text;html=1;strokeColor=none;fillColor=none;align=center;verticalAlign=middle;whiteSpace=wrap;rounded=0;fontSize=18;fontStyle=1;" vertex="1" parent="1">
          <mxGeometry x="100" y="20" width="100" height="30" as="geometry" />
        </mxCell>
        <mxCell id="frontend-container" value="" style="rounded=1;whiteSpace=wrap;html=1;fillColor=#FFD700;strokeColor=#333333;strokeWidth=1;" vertex="1" parent="1">
          <mxGeometry x="50" y="50" width="200" height="150" as="geometry" />
        </mxCell>
        
        <mxCell id="auth-ui" value="Authentication UI" style="ellipse;whiteSpace=wrap;html=1;fillColor=#FFFACD;strokeColor=#333333;strokeWidth=1;" vertex="1" parent="1">
          <mxGeometry x="60" y="60" width="180" height="40" as="geometry" />
        </mxCell>
        
        <mxCell id="profile-goals" value="User Profile &amp; Goal Setting" style="ellipse;whiteSpace=wrap;html=1;fillColor=#FFFACD;strokeColor=#333333;strokeWidth=1;" vertex="1" parent="1">
          <mxGeometry x="60" y="110" width="180" height="40" as="geometry" />
        </mxCell>
        
        <mxCell id="dashboard" value="Dashboard (Chart.js)" style="ellipse;whiteSpace=wrap;html=1;fillColor=#FFFACD;strokeColor=#333333;strokeWidth=1;" vertex="1" parent="1">
          <mxGeometry x="60" y="160" width="180" height="40" as="geometry" />
        </mxCell>
        
        <!-- Backend Services -->
        <mxCell id="backend-label" value="Backend Services" style="text;html=1;strokeColor=none;fillColor=none;align=center;verticalAlign=middle;whiteSpace=wrap;rounded=0;fontSize=18;fontStyle=1;" vertex="1" parent="1">
          <mxGeometry x="350" y="20" width="150" height="30" as="geometry" />
        </mxCell>
        <mxCell id="backend-container" value="" style="rounded=1;whiteSpace=wrap;html=1;fillColor=#87CEEB;strokeColor=#333333;strokeWidth=1;" vertex="1" parent="1">
          <mxGeometry x="300" y="50" width="200" height="230" as="geometry" />
        </mxCell>
        
        <mxCell id="auth-service" value="Authentication Service" style="ellipse;whiteSpace=wrap;html=1;fillColor=#B0E0E6;strokeColor=#333333;strokeWidth=1;" vertex="1" parent="1">
          <mxGeometry x="310" y="60" width="180" height="40" as="geometry" />
        </mxCell>
        
        <mxCell id="goal-mgmt" value="Goal Management" style="ellipse;whiteSpace=wrap;html=1;fillColor=#B0E0E6;strokeColor=#333333;strokeWidth=1;" vertex="1" parent="1">
          <mxGeometry x="310" y="110" width="180" height="40" as="geometry" />
        </mxCell>
        
        <mxCell id="strava-sync" value="Strava Sync Service" style="ellipse;whiteSpace=wrap;html=1;fillColor=#B0E0E6;strokeColor=#333333;strokeWidth=1;" vertex="1" parent="1">
          <mxGeometry x="310" y="160" width="180" height="40" as="geometry" />
        </mxCell>
        
        <mxCell id="training-plan" value="Training Plan Service" style="ellipse;whiteSpace=wrap;html=1;fillColor=#B0E0E6;strokeColor=#333333;strokeWidth=1;" vertex="1" parent="1">
          <mxGeometry x="310" y="210" width="180" height="40" as="geometry" />
        </mxCell>
        
        <mxCell id="performance-analytics" value="Performance Analytics" style="ellipse;whiteSpace=wrap;html=1;fillColor=#B0E0E6;strokeColor=#333333;strokeWidth=1;" vertex="1" parent="1">
          <mxGeometry x="310" y="260" width="180" height="40" as="geometry" />
        </mxCell>
        
        <!-- ML Service -->
        <mxCell id="ml-label" value="ML Service" style="text;html=1;strokeColor=none;fillColor=none;align=center;verticalAlign=middle;whiteSpace=wrap;rounded=0;fontSize=18;fontStyle=1;" vertex="1" parent="1">
          <mxGeometry x="600" y="20" width="100" height="30" as="geometry" />
        </mxCell>
        <mxCell id="ml-container" value="" style="rounded=1;whiteSpace=wrap;html=1;fillColor=#FFB6C1;strokeColor=#333333;strokeWidth=1;" vertex="1" parent="1">
          <mxGeometry x="550" y="50" width="200" height="190" as="geometry" />
        </mxCell>
        
        <mxCell id="data-preprocessing" value="Data Preprocessing Module" style="ellipse;whiteSpace=wrap;html=1;fillColor=#FFC0CB;strokeColor=#333333;strokeWidth=1;" vertex="1" parent="1">
          <mxGeometry x="560" y="60" width="180" height="40" as="geometry" />
        </mxCell>
        
        <mxCell id="model-prediction" value="Model Prediction Engine" style="ellipse;whiteSpace=wrap;html=1;fillColor=#FFC0CB;strokeColor=#333333;strokeWidth=1;" vertex="1" parent="1">
          <mxGeometry x="560" y="110" width="180" height="40" as="geometry" />
        </mxCell>
        
        <mxCell id="feedback-loop" value="Feedback Loop" style="ellipse;whiteSpace=wrap;html=1;fillColor=#FFC0CB;strokeColor=#333333;strokeWidth=1;" vertex="1" parent="1">
          <mxGeometry x="560" y="160" width="180" height="40" as="geometry" />
        </mxCell>
        
        <mxCell id="training-plan-gen" value="Training Plan Generator" style="ellipse;whiteSpace=wrap;html=1;fillColor=#FFC0CB;strokeColor=#333333;strokeWidth=1;" vertex="1" parent="1">
          <mxGeometry x="560" y="210" width="180" height="40" as="geometry" />
        </mxCell>
        
        <!-- Database -->
        <mxCell id="db-label" value="Database (PostgreSQL)" style="text;html=1;strokeColor=none;fillColor=none;align=center;verticalAlign=middle;whiteSpace=wrap;rounded=0;fontSize=18;fontStyle=1;" vertex="1" parent="1">
          <mxGeometry x="600" y="260" width="200" height="30" as="geometry" />
        </mxCell>
        <mxCell id="db-container" value="" style="shape=cylinder3;whiteSpace=wrap;html=1;boundedLbl=1;backgroundOutline=1;size=15;fillColor=#D3D3D3;strokeColor=#333333;strokeWidth=1;" vertex="1" parent="1">
          <mxGeometry x="550" y="300" width="200" height="180" as="geometry" />
        </mxCell>
        
        <mxCell id="user-table" value="User Table" style="ellipse;whiteSpace=wrap;html=1;fillColor=#E8E8E8;strokeColor=#333333;strokeWidth=1;" vertex="1" parent="1">
          <mxGeometry x="570" y="320" width="160" height="30" as="geometry" />
        </mxCell>
        
        <mxCell id="goals-table" value="Goals Table" style="ellipse;whiteSpace=wrap;html=1;fillColor=#E8E8E8;strokeColor=#333333;strokeWidth=1;" vertex="1" parent="1">
          <mxGeometry x="570" y="360" width="160" height="30" as="geometry" />
        </mxCell>
        
        <mxCell id="runs-table" value="Runs Table" style="ellipse;whiteSpace=wrap;html=1;fillColor=#E8E8E8;strokeColor=#333333;strokeWidth=1;" vertex="1" parent="1">
          <mxGeometry x="570" y="400" width="160" height="30" as="geometry" />
        </mxCell>
        
        <mxCell id="training-plans-table" value="Training Plans Table" style="ellipse;whiteSpace=wrap;html=1;fillColor=#E8E8E8;strokeColor=#333333;strokeWidth=1;" vertex="1" parent="1">
          <mxGeometry x="570" y="440" width="160" height="30" as="geometry" />
        </mxCell>
        
        <mxCell id="performance-metrics" value="Performance Metrics" style="ellipse;whiteSpace=wrap;html=1;fillColor=#E8E8E8;strokeColor=#333333;strokeWidth=1;" vertex="1" parent="1">
          <mxGeometry x="570" y="480" width="160" height="30" as="geometry" />
        </mxCell>
        
        <!-- Strava API -->
        <mxCell id="strava-label" value="Strava API" style="text;html=1;strokeColor=none;fillColor=none;align=center;verticalAlign=middle;whiteSpace=wrap;rounded=0;fontSize=18;fontStyle=1;" vertex="1" parent="1">
          <mxGeometry x="200" y="300" width="100" height="30" as="geometry" />
        </mxCell>
        <mxCell id="strava-container" value="(OAuth2)" style="rounded=1;whiteSpace=wrap;html=1;fillColor=#90EE90;strokeColor=#333333;strokeWidth=1;fontSize=14;" vertex="1" parent="1">
          <mxGeometry x="150" y="330" width="200" height="100" as="geometry" />
        </mxCell>
        
        <!-- Connection Arrows -->
        <!-- Frontend to Backend -->
        <mxCell id="frontend-to-backend" value="" style="endArrow=classic;html=1;rounded=0;exitX=1;exitY=0.5;exitDx=0;exitDy=0;entryX=0;entryY=0.5;entryDx=0;entryDy=0;strokeColor=#333333;" edge="1" parent="1" source="frontend-container" target="backend-container">
          <mxGeometry width="50" height="50" relative="1" as="geometry">
            <mxPoint x="400" y="350" as="sourcePoint" />
            <mxPoint x="450" y="300" as="targetPoint" />
          </mxGeometry>
        </mxCell>
        <mxCell id="api-calls-label" value="API Calls&#xa;(POST /users, GET /goals)" style="text;html=1;strokeColor=none;fillColor=none;align=center;verticalAlign=middle;whiteSpace=wrap;rounded=0;fontSize=10;" vertex="1" parent="1">
          <mxGeometry x="255" y="100" width="40" height="20" as="geometry" />
        </mxCell>
        
        <!-- Backend to ML Service -->
        <mxCell id="backend-to-ml" value="" style="endArrow=classic;html=1;rounded=0;exitX=1;exitY=0.25;exitDx=0;exitDy=0;entryX=0;entryY=0.25;entryDx=0;entryDy=0;strokeColor=#333333;" edge="1" parent="1" source="backend-container" target="ml-container">
          <mxGeometry width="50" height="50" relative="1" as="geometry">
            <mxPoint x="400" y="350" as="sourcePoint" />
            <mxPoint x="450" y="300" as="targetPoint" />
          </mxGeometry>
        </mxCell>
        <mxCell id="training-plans-label" value="POST /training-plans" style="text;html=1;strokeColor=none;fillColor=none;align=center;verticalAlign=middle;whiteSpace=wrap;rounded=0;fontSize=10;" vertex="1" parent="1">
          <mxGeometry x="510" y="80" width="40" height="20" as="geometry" />
        </mxCell>
        
        <!-- ML Service to Backend -->
        <mxCell id="ml-to-backend" value="" style="endArrow=classic;html=1;rounded=0;exitX=0;exitY=0.75;exitDx=0;exitDy=0;entryX=1;entryY=0.75;entryDx=0;entryDy=0;strokeColor=#333333;" edge="1" parent="1" source="ml-container" target="backend-container">
          <mxGeometry width="50" height="50" relative="1" as="geometry">
            <mxPoint x="400" y="350" as="sourcePoint" />
            <mxPoint x="450" y="300" as="targetPoint" />
          </mxGeometry>
        </mxCell>
        <mxCell id="predictions-label" value="GET /predictions" style="text;html=1;strokeColor=none;fillColor=none;align=center;verticalAlign=middle;whiteSpace=wrap;rounded=0;fontSize=10;" vertex="1" parent="1">
          <mxGeometry x="510" y="190" width="40" height="20" as="geometry" />
        </mxCell>
        
        <!-- Backend to Database -->
        <mxCell id="backend-to-db" value="" style="endArrow=classic;html=1;rounded=0;exitX=0.75;exitY=1;exitDx=0;exitDy=0;entryX=0.145;entryY=0;entryDx=0;entryDy=4.35;entryPerimeter=0;strokeColor=#333333;" edge="1" parent="1" source="backend-container" target="db-container">
          <mxGeometry width="50" height="50" relative="1" as="geometry">
            <mxPoint x="400" y="350" as="sourcePoint" />
            <mxPoint x="450" y="300" as="targetPoint" />
            <Array as="points">
              <mxPoint x="450" y="280" />
              <mxPoint x="580" y="280" />
            </Array>
          </mxGeometry>
        </mxCell>
        <mxCell id="crud-label" value="CRUD Operations" style="text;html=1;strokeColor=none;fillColor=none;align=center;verticalAlign=middle;whiteSpace=wrap;rounded=0;fontSize=10;" vertex="1" parent="1">
          <mxGeometry x="490" y="260" width="40" height="20" as="geometry" />
        </mxCell>
        
        <!-- Backend to Strava API -->
        <mxCell id="backend-to-strava" value="" style="endArrow=classic;html=1;rounded=0;exitX=0.25;exitY=1;exitDx=0;exitDy=0;entryX=0.75;entryY=0;entryDx=0;entryDy=0;strokeColor=#333333;" edge="1" parent="1" source="backend-container" target="strava-container">
          <mxGeometry width="50" height="50" relative="1" as="geometry">
            <mxPoint x="400" y="350" as="sourcePoint" />
            <mxPoint x="450" y="300" as="targetPoint" />
            <Array as="points">
              <mxPoint x="350" y="300" />
              <mxPoint x="300" y="300" />
            </Array>
          </mxGeometry>
        </mxCell>
        <mxCell id="api-calls-strava-label" value="GET /activities&#xa;GET /athlete" style="text;html=1;strokeColor=none;fillColor=none;align=center;verticalAlign=middle;whiteSpace=wrap;rounded=0;fontSize=10;" vertex="1" parent="1">
          <mxGeometry x="320" y="300" width="40" height="20" as="geometry" />
        </mxCell>
        
        <!-- Strava to Backend -->
        <mxCell id="strava-to-backend" value="" style="endArrow=classic;html=1;rounded=0;exitX=0.25;exitY=0;exitDx=0;exitDy=0;entryX=0;entryY=0.75;entryDx=0;entryDy=0;strokeColor=#333333;" edge="1" parent="1" source="strava-container" target="backend-container">
          <mxGeometry width="50" height="50" relative="1" as="geometry">
            <mxPoint x="400" y="350" as="sourcePoint" />
            <mxPoint x="450" y="300" as="targetPoint" />
            <Array as="points">
              <mxPoint x="200" y="280" />
              <mxPoint x="250" y="220" />
            </Array>
          </mxGeometry>
        </mxCell>
        <mxCell id="oauth-callback-label" value="OAuth Callback" style="text;html=1;strokeColor=none;fillColor=none;align=center;verticalAlign=middle;whiteSpace=wrap;rounded=0;fontSize=10;" vertex="1" parent="1">
          <mxGeometry x="210" y="250" width="40" height="20" as="geometry" />
        </mxCell>
        
        <!-- API Flow Specifications -->
        <mxCell id="api-specs" value="API Flow Specifications" style="rounded=1;whiteSpace=wrap;html=1;fillColor=#F5F5F5;strokeColor=#333333;strokeWidth=1;verticalAlign=top;fontSize=16;fontStyle=1;" vertex="1" parent="1">
          <mxGeometry x="50" y="500" width="800" height="180" as="geometry" />
        </mxCell>
        
        <mxCell id="frontend-backend-api" value="Frontend → Backend:&#xa;• POST /api/auth/login, POST /api/auth/register - User authentication&#xa;• GET /api/profile - Fetch user profile&#xa;• POST /api/goals - Create running goals&#xa;• GET /api/runs - Fetch running history&#xa;• GET /api/training-plans - Get customized training plans" style="text;html=1;strokeColor=none;fillColor=none;align=left;verticalAlign=top;whiteSpace=wrap;rounded=0;fontSize=12;" vertex="1" parent="1">
          <mxGeometry x="60" y="530" width="380" height="110" as="geometry" />
        </mxCell>
        
        <mxCell id="backend-ml-api" value="Backend → ML Service:&#xa;• POST /analyze/performance - Process run data for insights&#xa;• POST /generate/plan - Create personalized training plan&#xa;• GET /predict/improvement - Predict pace improvements&#xa;&#xa;Backend → Strava API:&#xa;• GET /api/v3/athlete/activities - Fetch user's running activities&#xa;• GET /api/v3/athlete - Get athlete profile data" style="text;html=1;strokeColor=none;fillColor=none;align=left;verticalAlign=top;whiteSpace=wrap;rounded=0;fontSize=12;" vertex="1" parent="1">
          <mxGeometry x="450" y="530" width="390" height="140" as="geometry" />
        </mxCell>
      </root>
    </mxGraphModel>
  </diagram>
</mxfile>